<?xml version="1.0" encoding="utf-8"?>
<!-- Generator: Adobe Illustrator 17.1.0, SVG Export Plug-In . SVG Version: 6.00 Build 0)  -->
<!DOCTYPE svg PUBLIC "-//W3C//DTD SVG 1.0//EN" "http://www.w3.org/TR/2001/REC-SVG-20010904/DTD/svg10.dtd">
<svg version="1.0" id="Layer_1" xmlns="http://www.w3.org/2000/svg" xmlns:xlink="http://www.w3.org/1999/xlink" x="0px" y="0px"
	 width="24px" height="24px" viewBox="0 0 24 24" style="enable-background:new 0 0 24 24;" xml:space="preserve">
<path style="fill:none;stroke:#000000;stroke-width:2;stroke-linecap:round;stroke-linejoin:round;stroke-miterlimit:10;" d="
	M19.5,5c-0.2,0-0.4,0-0.6,0.1C19,4.9,19,4.7,19,4.5C19,2.6,17.4,1,15.5,1S12,2.6,12,4.5c0,1,0.4,1.8,1,2.5L7,13
	c-0.6-0.6-1.5-1-2.5-1C2.6,12,1,13.6,1,15.5S2.6,19,4.5,19c0.2,0,0.4,0,0.6-0.1C5,19.1,5,19.3,5,19.5C5,21.4,6.6,23,8.5,23
	s3.5-1.6,3.5-3.5c0-1-0.4-1.8-1-2.5L17,11c0.6,0.6,1.5,1,2.5,1c1.9,0,3.5-1.6,3.5-3.5S21.4,5,19.5,5z"/>
</svg>
